<svg width="17" height="17" viewBox="0 0 16.6667 16.6667" fill="none" xmlns="http://www.w3.org/2000/svg">
  <path fill-rule="evenodd" clip-rule="evenodd" d="M8.33333 1.66667C4.65143 1.66667 1.66667 4.65143 1.66667 8.33333C1.66667 12.0152 4.65143 15 8.33333 15C12.0152 15 15 12.0152 15 8.33333C15 4.65143 12.0152 1.66667 8.33333 1.66667ZM0 8.33333C0 3.73096 3.73096 0 8.33333 0C12.9357 0 16.6667 3.73096 16.6667 8.33333C16.6667 12.9357 12.9357 16.6667 8.33333 16.6667C3.73096 16.6667 0 12.9357 0 8.33333ZM8.33333 3.33333C8.79357 3.33333 9.16667 3.70643 9.16667 4.16667V7.88735L11.2956 9.30662C11.6785 9.56192 11.782 10.0793 11.5267 10.4622C11.2714 10.8452 10.754 10.9487 10.3711 10.6934L7.87108 9.02671C7.63925 8.87215 7.5 8.61196 7.5 8.33333V4.16667C7.5 3.70643 7.8731 3.33333 8.33333 3.33333Z" fill="currentColor"/>
</svg>
